<svg xmlns="http://www.w3.org/2000/svg" class="graphdiagram" viewBox="-1833.130403645165 -1093.9073388758134 2610.7743323061786 1481.1968855003067"><g class="layer relationships"><g class="related-pair"><g class="relationship" transform="translate(264.52471907766255,-128.76) rotate(180)"><path class="relationship" d="M 95.78389757857624 4 L 1456.7520155609002 4 L 1456.7520155609002 16 L 1488.7520155609002 0 L 1456.7520155609002 -16 L 1456.7520155609002 -4 L 95.78389757857624 -4 Z" fill="rgb(0, 0, 0)" stroke="rgb(51, 51, 51)" stroke-width="0px"></path><text class="type" text-anchor="middle" baseline-shift="30%" alignment-baseline="alphabetic" transform="rotate(180)" x="-776.2679565697382" y="0" font-size="50px" font-family="'Gill Sans', 'Gill Sans MT', Calibri, sans-serif">:COS_SIM</text></g></g><g class="related-pair"><g class="relationship" transform="translate(264.52471907766255,-128.76) rotate(-132.47799667003966)"><path class="relationship" d="M 95.78389757857624 4 L 977.242416639938 4 L 977.242416639938 16 L 1009.242416639938 0 L 977.242416639938 -16 L 977.242416639938 -4 L 95.78389757857624 -4 Z" fill="rgb(0, 0, 0)" stroke="rgb(51, 51, 51)" stroke-width="0px"></path><text class="type" text-anchor="middle" baseline-shift="30%" alignment-baseline="alphabetic" transform="rotate(180)" x="-536.5131571092571" y="0" font-size="50px" font-family="'Gill Sans', 'Gill Sans MT', Calibri, sans-serif">:TF_IDF</text></g></g><g class="related-pair"><g class="relationship" transform="translate(-1320.011194061814,-128.76) rotate(-46.03270291556299)"><path class="relationship" d="M 95.78389757857624 4 L 1005.5024043372746 4 L 1005.5024043372746 16 L 1037.5024043372746 0 L 1005.5024043372746 -16 L 1005.5024043372746 -4 L 95.78389757857624 -4 Z" fill="rgb(0, 0, 0)" stroke="rgb(51, 51, 51)" stroke-width="0px"></path><text class="type" text-anchor="middle" baseline-shift="30%" alignment-baseline="alphabetic" x="550.6431509579254" y="0" font-size="50px" font-family="'Gill Sans', 'Gill Sans MT', Calibri, sans-serif">:HAS</text></g></g><g class="related-pair"><g class="relationship" transform="translate(-1320.011194061814,-128.76) rotate(-33.6070967930669)"><path class="relationship" d="M 95.78389757857624 4 L 810.637850119178 4 L 810.637850119178 16 L 842.637850119178 0 L 810.637850119178 -16 L 810.637850119178 -4 L 95.78389757857624 -4 Z" fill="rgb(0, 0, 0)" stroke="rgb(51, 51, 51)" stroke-width="0px"></path></g></g><g class="related-pair"><g class="relationship" transform="translate(264.52471907766255,-128.76) rotate(-145.00359550145703)"><path class="relationship" d="M 95.78389757857624 4 L 776.5496700360618 4 L 776.5496700360618 16 L 808.5496700360618 0 L 776.5496700360618 -16 L 776.5496700360618 -4 L 95.78389757857624 -4 Z" fill="rgb(0, 0, 0)" stroke="rgb(51, 51, 51)" stroke-width="0px"></path></g></g><g class="related-pair"><g class="relationship" transform="translate(264.52471907766255,-128.76) rotate(-161.19172993716504)"><path class="relationship" d="M 95.78389757857624 4 L 649.760773897367 4 L 649.760773897367 16 L 681.760773897367 0 L 649.760773897367 -16 L 649.760773897367 -4 L 95.78389757857624 -4 Z" fill="rgb(0, 0, 0)" stroke="rgb(51, 51, 51)" stroke-width="0px"></path></g></g><g class="related-pair"><g class="relationship" transform="translate(-1320.011194061814,-128.76) rotate(-17.916067298185606)"><path class="relationship" d="M 95.78389757857624 4 L 688.9229792122062 4 L 688.9229792122062 16 L 720.9229792122062 0 L 688.9229792122062 -16 L 688.9229792122062 -4 L 95.78389757857624 -4 Z" fill="rgb(0, 0, 0)" stroke="rgb(51, 51, 51)" stroke-width="0px"></path></g></g><g class="related-pair"><g class="relationship" transform="translate(-1320.011194061814,-128.76) rotate(68.96902017674842)"><path class="relationship" d="M 95.78389757857624 4 L 256.33548445476185 4 L 256.33548445476185 16 L 288.33548445476185 0 L 256.33548445476185 -16 L 256.33548445476185 -4 L 95.78389757857624 -4 Z" fill="rgb(0, 0, 0)" stroke="rgb(51, 51, 51)" stroke-width="0px"></path></g></g></g><g class="layer nodes"><circle class="node node-id-0" r="80.78389757857624" fill="rgb(255, 255, 255)" stroke="rgb(0, 0, 0)" stroke-width="8px" cx="264.52471907766255" cy="-128.76"></circle><circle class="node node-id-1" r="80.78389757857624" fill="rgb(255, 255, 255)" stroke="rgb(0, 0, 0)" stroke-width="8px" cx="-1320.011194061814" cy="-128.76"></circle><g class="caption"><text class="caption node" text-anchor="middle" alignment-baseline="central" x="264.52471907766255" y="-128.76" font-size="50px" font-family="'Gill Sans', 'Gill Sans MT', Calibri, sans-serif">Doc1</text></g><g class="caption"><text class="caption node" text-anchor="middle" alignment-baseline="central" x="-1320.011194061814" y="-128.76" font-size="50px" font-family="'Gill Sans', 'Gill Sans MT', Calibri, sans-serif">Doc2</text></g><circle class="node node-id-3" r="118.40379138403677" fill="rgb(255, 255, 255)" stroke="rgb(0, 0, 0)" stroke-width="8px" cx="-507.11228746916197" cy="-971.5035474917767"></circle><g class="caption"><text class="caption node" text-anchor="middle" alignment-baseline="central" x="-507.11228746916197" y="-996.5035474917767" font-size="50px" font-family="'Gill Sans', 'Gill Sans MT', Calibri, sans-serif">Word:</text><text class="caption node" text-anchor="middle" alignment-baseline="central" x="-507.11228746916197" y="-946.5035474917767" font-size="50px" font-family="'Gill Sans', 'Gill Sans MT', Calibri, sans-serif">"I"</text></g><circle class="node node-id-6" r="118.40379138403677" fill="rgb(255, 255, 255)" stroke="rgb(0, 0, 0)" stroke-width="8px" cx="-507.11228746916197" cy="-668.9938878752062"></circle><g class="caption"><text class="caption node" text-anchor="middle" alignment-baseline="central" x="-507.11228746916197" y="-693.9938878752062" font-size="50px" font-family="'Gill Sans', 'Gill Sans MT', Calibri, sans-serif">Word:</text><text class="caption node" text-anchor="middle" alignment-baseline="central" x="-507.11228746916197" y="-643.9938878752062" font-size="50px" font-family="'Gill Sans', 'Gill Sans MT', Calibri, sans-serif">"like"</text></g><circle class="node node-id-7" r="118.40379138403677" fill="rgb(255, 255, 255)" stroke="rgb(0, 0, 0)" stroke-width="8px" cx="-507.11228746916197" cy="-391.5709560461211"></circle><g class="caption"><text class="caption node" text-anchor="middle" alignment-baseline="central" x="-507.11228746916197" y="-416.5709560461211" font-size="50px" font-family="'Gill Sans', 'Gill Sans MT', Calibri, sans-serif">Word:</text><text class="caption node" text-anchor="middle" alignment-baseline="central" x="-507.11228746916197" y="-366.5709560461211" font-size="50px" font-family="'Gill Sans', 'Gill Sans MT', Calibri, sans-serif">"dogs"</text></g><circle class="node node-id-8" r="118.40379138403677" fill="rgb(255, 255, 255)" stroke="rgb(0, 0, 0)" stroke-width="8px" cx="-1168.660488195588" cy="264.88575524045655"></circle><g class="caption"><text class="caption node" text-anchor="middle" alignment-baseline="central" x="-1168.660488195588" y="239.88575524045655" font-size="50px" font-family="'Gill Sans', 'Gill Sans MT', Calibri, sans-serif">Word:</text><text class="caption node" text-anchor="middle" alignment-baseline="central" x="-1168.660488195588" y="289.88575524045655" font-size="50px" font-family="'Gill Sans', 'Gill Sans MT', Calibri, sans-serif">"too"</text></g></g><g class="layer properties"></g><g class="layer overlay"><circle class="node overlay" r="84.78389757857624" stroke="none" fill="rgba(255, 255, 255, 0)" cx="264.52471907766255" cy="-128.76"></circle><circle class="node ring" r="89.78389757857624" fill="none" stroke="rgba(255, 255, 255, 0)" stroke-width="10px" cx="264.52471907766255" cy="-128.76"></circle><circle class="node overlay" r="84.78389757857624" stroke="none" fill="rgba(255, 255, 255, 0)" cx="-1320.011194061814" cy="-128.76"></circle><circle class="node ring" r="89.78389757857624" fill="none" stroke="rgba(255, 255, 255, 0)" stroke-width="10px" cx="-1320.011194061814" cy="-128.76"></circle><path class="relationship overlay" fill="rgba(255, 255, 255, 0)" stroke="rgba(255, 255, 255, 0)" stroke-width="10px" transform="translate(264.52471907766255,-128.76) rotate(180)" d="M 95.78389757857624 4 L 1456.7520155609002 4 L 1456.7520155609002 16 L 1488.7520155609002 0 L 1456.7520155609002 -16 L 1456.7520155609002 -4 L 95.78389757857624 -4 Z"></path><circle class="node overlay" r="122.40379138403677" stroke="none" fill="rgba(255, 255, 255, 0)" cx="-507.11228746916197" cy="-971.5035474917767"></circle><circle class="node ring" r="127.40379138403677" fill="none" stroke="rgba(255, 255, 255, 0)" stroke-width="10px" cx="-507.11228746916197" cy="-971.5035474917767"></circle><path class="relationship overlay" fill="rgba(255, 255, 255, 0)" stroke="rgba(255, 255, 255, 0)" stroke-width="10px" transform="translate(264.52471907766255,-128.76) rotate(-132.47799667003966)" d="M 95.78389757857624 4 L 977.242416639938 4 L 977.242416639938 16 L 1009.242416639938 0 L 977.242416639938 -16 L 977.242416639938 -4 L 95.78389757857624 -4 Z"></path><path class="relationship overlay" fill="rgba(255, 255, 255, 0)" stroke="rgba(255, 255, 255, 0)" stroke-width="10px" transform="translate(-1320.011194061814,-128.76) rotate(-46.03270291556299)" d="M 95.78389757857624 4 L 1005.5024043372746 4 L 1005.5024043372746 16 L 1037.5024043372746 0 L 1005.5024043372746 -16 L 1005.5024043372746 -4 L 95.78389757857624 -4 Z"></path><circle class="node overlay" r="122.40379138403677" stroke="none" fill="rgba(255, 255, 255, 0)" cx="-507.11228746916197" cy="-668.9938878752062"></circle><circle class="node ring" r="127.40379138403677" fill="none" stroke="rgba(255, 255, 255, 0)" stroke-width="10px" cx="-507.11228746916197" cy="-668.9938878752062"></circle><path class="relationship overlay" fill="rgba(255, 255, 255, 0)" stroke="rgba(255, 255, 255, 0)" stroke-width="10px" transform="translate(-1320.011194061814,-128.76) rotate(-33.6070967930669)" d="M 95.78389757857624 4 L 810.637850119178 4 L 810.637850119178 16 L 842.637850119178 0 L 810.637850119178 -16 L 810.637850119178 -4 L 95.78389757857624 -4 Z"></path><path class="relationship overlay" fill="rgba(255, 255, 255, 0)" stroke="rgba(255, 255, 255, 0)" stroke-width="10px" transform="translate(264.52471907766255,-128.76) rotate(-145.00359550145703)" d="M 95.78389757857624 4 L 776.5496700360618 4 L 776.5496700360618 16 L 808.5496700360618 0 L 776.5496700360618 -16 L 776.5496700360618 -4 L 95.78389757857624 -4 Z"></path><circle class="node overlay" r="122.40379138403677" stroke="none" fill="rgba(255, 255, 255, 0)" cx="-507.11228746916197" cy="-391.5709560461211"></circle><circle class="node ring" r="127.40379138403677" fill="none" stroke="rgba(255, 255, 255, 0)" stroke-width="10px" cx="-507.11228746916197" cy="-391.5709560461211"></circle><path class="relationship overlay" fill="rgba(255, 255, 255, 0)" stroke="rgba(255, 255, 255, 0)" stroke-width="10px" transform="translate(264.52471907766255,-128.76) rotate(-161.19172993716504)" d="M 95.78389757857624 4 L 649.760773897367 4 L 649.760773897367 16 L 681.760773897367 0 L 649.760773897367 -16 L 649.760773897367 -4 L 95.78389757857624 -4 Z"></path><path class="relationship overlay" fill="rgba(255, 255, 255, 0)" stroke="rgba(255, 255, 255, 0)" stroke-width="10px" transform="translate(-1320.011194061814,-128.76) rotate(-17.916067298185606)" d="M 95.78389757857624 4 L 688.9229792122062 4 L 688.9229792122062 16 L 720.9229792122062 0 L 688.9229792122062 -16 L 688.9229792122062 -4 L 95.78389757857624 -4 Z"></path><circle class="node overlay" r="122.40379138403677" stroke="none" fill="rgba(255, 255, 255, 0)" cx="-1168.660488195588" cy="264.88575524045655"></circle><circle class="node ring" r="127.40379138403677" fill="none" stroke="rgba(255, 255, 255, 0)" stroke-width="10px" cx="-1168.660488195588" cy="264.88575524045655"></circle><path class="relationship overlay" fill="rgba(255, 255, 255, 0)" stroke="rgba(255, 255, 255, 0)" stroke-width="10px" transform="translate(-1320.011194061814,-128.76) rotate(68.96902017674842)" d="M 95.78389757857624 4 L 256.33548445476185 4 L 256.33548445476185 16 L 288.33548445476185 0 L 256.33548445476185 -16 L 256.33548445476185 -4 L 95.78389757857624 -4 Z"></path></g></svg>